<svg version="1.1" id="Layer_1" xmlns="http://www.w3.org/2000/svg" xmlns:xlink="http://www.w3.org/1999/xlink" x="0px" y="0px"
	 width="100%" viewBox="0 0 1416 658" enable-background="new 0 0 1416 658" xml:space="preserve">
<path fill="#0066FF" opacity="1.000000" stroke="none" 
	d="
M966.000000,659.000000 
	C644.038696,659.000000 322.577393,659.000000 1.058035,659.000000 
	C1.058035,439.731750 1.058035,220.463516 1.058035,1.097627 
	C472.878113,1.097627 944.756287,1.097627 1416.817139,1.097627 
	C1416.817139,220.333206 1416.817139,439.666595 1416.817139,659.000000 
	C1266.796631,659.000000 1116.648315,659.000000 966.000000,659.000000 
M525.008423,356.552704 
	C561.292725,372.251068 599.504578,354.153900 607.266357,324.225342 
	C597.864746,324.225342 588.556519,324.165924 579.251343,324.305359 
	C578.168213,324.321625 576.720947,325.172150 576.084534,326.084015 
	C567.043945,339.038544 545.766968,340.676117 533.370605,331.374390 
	C525.992676,325.838226 521.928162,318.462402 520.428528,309.003510 
	C535.972717,309.003510 550.794250,309.003510 565.615784,309.003510 
	C580.400146,309.003510 595.184448,309.003510 609.909363,309.003510 
	C610.263367,307.898682 610.542175,307.284546 610.654541,306.641327 
	C617.763000,265.957428 582.907959,230.637772 542.251587,237.315308 
	C514.386047,241.892029 495.278778,261.363220 491.202484,289.336700 
	C487.018921,318.046387 499.836548,343.900513 525.008423,356.552704 
M413.601288,340.091522 
	C416.513947,335.167206 419.426605,330.242859 422.982147,324.231659 
	C411.930328,324.231659 402.502075,324.186584 393.075714,324.300781 
	C392.122650,324.312317 390.878723,325.056122 390.280457,325.846619 
	C383.091309,335.345734 373.252899,338.063080 361.962921,337.010162 
	C347.822723,335.691406 335.522552,323.071106 334.939056,308.905243 
	C364.671265,308.905243 394.386932,308.905243 423.960510,308.905243 
	C424.324249,307.942322 424.579193,307.494568 424.661438,307.017059 
	C428.862122,282.633850 418.048950,258.054565 397.563873,245.389526 
	C377.194061,232.795715 348.636810,233.792953 329.251862,248.234802 
	C310.171722,262.449554 303.599609,282.227570 304.913330,305.292511 
	C306.333588,330.228821 322.153503,351.340179 345.269806,358.987091 
	C370.722198,367.406830 397.062042,360.290161 413.601288,340.091522 
M1157.631104,301.165009 
	C1142.996704,321.456024 1148.849731,346.974121 1170.517822,357.442932 
	C1186.177734,365.008911 1212.534546,364.761719 1227.172485,349.038269 
	C1227.537354,348.646332 1228.179077,348.512115 1228.946777,348.131134 
	C1229.846313,352.183472 1230.666260,355.877655 1231.515991,359.705261 
	C1239.794067,359.705261 1247.862427,359.705261 1256.151611,359.705261 
	C1256.151611,332.647125 1256.703003,305.840881 1255.953979,279.070953 
	C1255.470703,261.797241 1245.811401,249.575668 1230.428955,241.977982 
	C1219.603516,236.631088 1207.983398,235.772644 1196.282715,237.234070 
	C1179.668091,239.309235 1166.162720,246.670029 1158.545166,262.340088 
	C1156.587036,266.368378 1155.660889,270.898346 1154.096802,275.700806 
	C1164.738281,275.700806 1174.188721,275.700806 1183.594849,275.700806 
	C1190.140747,262.661041 1200.608643,257.593689 1212.733154,261.527069 
	C1222.267578,264.620209 1227.927490,274.385803 1226.089722,285.162872 
	C1216.879761,285.162872 1207.579102,284.949615 1198.291748,285.211243 
	C1183.138428,285.638184 1168.786621,288.440582 1157.631104,301.165009 
M818.950073,320.372681 
	C819.943604,311.985657 822.196411,303.522705 821.696167,295.225739 
	C820.155151,269.668091 808.216431,250.551849 783.730408,240.934937 
	C759.718323,231.504181 732.273987,237.470322 715.410461,255.122009 
	C698.270386,273.063171 693.691345,303.485168 704.517639,327.491119 
	C714.842407,350.384949 736.727051,363.114258 764.046509,362.116364 
	C789.621948,361.182129 809.496094,346.292297 818.950073,320.372681 
M871.752930,278.534241 
	C874.825806,271.498993 880.191772,267.056793 887.501953,265.062195 
	C905.775146,260.076324 921.045593,271.277100 921.295959,290.188599 
	C921.576111,311.348907 921.371765,332.515594 921.378113,353.679504 
	C921.378723,355.634552 921.378235,357.589600 921.378235,359.683472 
	C931.548096,359.683472 941.116943,359.683472 950.896362,359.683472 
	C950.965332,358.438171 951.065979,357.468445 951.065857,356.498718 
	C951.062866,333.001862 951.091187,309.504822 950.991638,286.008331 
	C950.976929,282.532288 950.638062,279.001007 949.956482,275.593811 
	C946.470154,258.165497 937.164673,245.018478 919.938965,239.420670 
	C902.526611,233.762222 886.032959,235.932938 872.101868,249.116531 
	C871.455872,249.727844 870.659119,250.179947 869.562927,250.974030 
	C868.548401,246.613632 867.669434,242.835648 866.854492,239.332794 
	C857.544434,239.332794 848.784302,239.332794 840.017212,239.332794 
	C840.017212,279.601105 840.017212,319.533203 840.017212,359.689972 
	C849.820984,359.689972 859.372742,359.689972 869.306091,359.689972 
	C869.306091,357.601074 869.305969,355.785919 869.306030,353.970764 
	C869.306396,333.473389 869.188660,312.974792 869.400818,292.479614 
	C869.446594,288.057159 870.681091,283.647064 871.752930,278.534241 
M268.175018,314.500092 
	C268.175018,284.407562 268.175018,254.315018 268.175018,223.724701 
	C285.047058,223.724701 301.295197,223.724701 317.612183,223.724701 
	C317.612183,213.524170 317.612183,203.830536 317.612183,194.303619 
	C274.159851,194.303619 231.100433,194.303619 187.994232,194.303619 
	C187.994232,204.214951 187.994232,213.815750 187.994232,223.968811 
	C204.521439,223.968811 220.753052,223.968811 237.493469,223.968811 
	C237.493469,269.580231 237.493469,314.636627 237.493469,359.676819 
	C247.944641,359.676819 257.868408,359.676819 268.175018,359.676819 
	C268.175018,344.754974 268.175018,330.127533 268.175018,314.500092 
M1114.787231,314.924988 
	C1112.452637,315.085114 1110.107422,314.214569 1108.762573,317.670502 
	C1104.552002,328.490417 1096.327026,334.341278 1084.729370,334.888214 
	C1072.403198,335.469513 1062.614380,330.535248 1056.199707,319.915833 
	C1050.098999,309.816132 1049.378662,298.799835 1052.465454,287.613464 
	C1056.122437,274.360168 1066.474609,265.318176 1079.330933,264.176239 
	C1092.812134,262.978851 1102.978638,268.142303 1109.015015,280.652954 
	C1109.489258,281.636017 1110.817993,282.843201 1111.769531,282.860748 
	C1120.847534,283.027832 1129.929688,282.960480 1139.388184,282.960480 
	C1138.980347,281.019897 1138.792236,279.717072 1138.430908,278.464172 
	C1129.304199,246.821198 1099.579346,230.280792 1066.713989,238.540833 
	C1033.965576,246.771484 1014.976318,279.096680 1022.494202,313.815521 
	C1029.310913,345.296326 1053.863525,363.537781 1087.453003,362.076965 
	C1112.886108,360.970856 1134.647583,341.970642 1139.034546,317.014954 
	C1139.135864,316.438812 1138.974121,315.816467 1138.916138,314.924988 
	C1131.018799,314.924988 1123.373413,314.924988 1114.787231,314.924988 
M638.693420,338.499084 
	C638.693420,345.581726 638.693420,352.664337 638.693420,359.717468 
	C648.870361,359.717468 658.305176,359.717468 668.234192,359.717468 
	C668.234192,344.191711 668.234253,328.917236 668.234253,313.642761 
	C668.234253,298.407440 668.234192,283.172150 668.234192,267.450928 
	C677.301880,267.450928 685.556763,267.450928 693.977112,267.450928 
	C693.977112,257.731232 693.977112,248.514450 693.977112,238.746841 
	C685.260803,238.746841 676.864502,238.746841 668.251038,238.746841 
	C668.251038,234.380035 668.111206,230.558838 668.283142,226.751740 
	C668.553101,220.776199 671.419373,217.997101 677.398743,217.875534 
	C682.858643,217.764511 688.322632,217.852036 694.049255,217.852036 
	C694.150085,215.957001 694.290771,214.487045 694.295837,213.016647 
	C694.319641,206.067200 694.306396,199.117615 694.306396,191.693588 
	C686.359375,191.693588 678.908691,191.676605 671.458191,191.696762 
	C648.899719,191.757812 638.770874,201.827972 638.696045,224.259308 
	C638.680054,229.038788 638.693665,233.818390 638.693665,239.096863 
	C631.760010,239.096863 625.350098,239.096863 618.925781,239.096863 
	C618.925781,248.815582 618.925781,258.021973 618.925781,267.709534 
	C625.619324,267.709534 631.883850,267.709534 638.693420,267.709534 
	C638.693420,291.298737 638.693420,314.398956 638.693420,338.499084 
M472.799225,194.866119 
	C463.005554,194.866119 453.211884,194.866119 443.425812,194.866119 
	C443.425812,249.684143 443.425812,304.571625 443.425812,359.563324 
	C453.382874,359.563324 463.065704,359.563324 472.915985,359.563324 
	C472.915985,304.704712 472.915985,250.258377 472.799225,194.866119 
M415.375427,508.212036 
	C430.998535,507.045685 442.165710,499.211914 447.829224,484.765869 
	C453.407837,470.536469 450.899109,457.045074 440.300049,445.875427 
	C429.737274,434.744049 416.585327,431.484009 401.893463,436.055145 
	C384.343384,441.515533 374.033081,458.934082 376.912476,477.599335 
	C379.674805,495.505798 394.962585,507.986877 415.375427,508.212036 
M259.963013,440.495361 
	C258.964844,439.898712 257.987030,439.264435 256.965393,438.711090 
	C242.153519,430.688690 224.113785,433.467804 212.507385,445.549042 
	C200.987228,457.540527 198.796036,475.447418 207.090149,489.820190 
	C215.424347,504.262451 232.476639,511.493652 248.643768,507.055145 
	C263.271332,503.039276 272.613251,493.336761 275.489105,478.544434 
	C278.478790,463.166351 273.249939,450.395691 259.963013,440.495361 
M296.123871,449.683258 
	C295.492889,450.661102 294.818359,451.613831 294.237488,452.620605 
	C285.748596,467.334503 288.197693,485.735657 300.214600,497.625061 
	C312.304749,509.586914 331.228760,511.774017 345.725983,502.884949 
	C360.082855,494.081970 366.925049,476.482086 361.763245,460.394867 
	C357.411652,446.832733 348.089172,438.032745 334.094208,435.089264 
	C318.829376,431.878693 306.308289,437.039276 296.123871,449.683258 
M973.770752,287.499878 
	C973.770752,311.553497 973.770752,335.607147 973.770752,359.723022 
	C983.929810,359.723022 993.349915,359.723022 1003.025635,359.723022 
	C1003.025635,319.469269 1003.025635,279.461945 1003.025635,239.313690 
	C993.195923,239.313690 983.642883,239.313690 973.770752,239.313690 
	C973.770752,255.250107 973.770752,270.874969 973.770752,287.499878 
M777.675110,188.017822 
	C772.777466,187.088867 769.628784,189.029510 767.335510,193.469025 
	C765.283264,197.442032 762.486694,201.029709 760.030334,204.795074 
	C756.358704,210.423233 752.697388,216.058136 748.496948,222.511841 
	C756.854919,222.511841 764.144470,222.585068 771.429443,222.436188 
	C772.577026,222.412735 774.045227,221.668350 774.788513,220.776581 
	C783.529480,210.290070 792.162659,199.713623 800.795898,189.137772 
	C800.911804,188.995819 800.661133,188.554642 800.519409,188.017822 
	C793.257935,188.017822 785.943542,188.017822 777.675110,188.017822 
M1002.008972,215.451599 
	C1007.306641,207.716690 1007.434021,199.878387 1002.367920,193.357590 
	C997.772827,187.443069 989.704102,185.052948 982.669617,187.686630 
	C975.606506,190.331055 971.690430,195.562057 971.059998,203.027664 
	C970.451599,210.233185 974.524353,216.936295 981.003357,220.007706 
	C988.033752,223.340500 994.977051,221.982956 1002.008972,215.451599 
z"/>
<path fill="#F0F3FF" opacity="1.000000" stroke="none" 
	d="
M524.677979,356.372742 
	C499.836548,343.900513 487.018921,318.046387 491.202484,289.336700 
	C495.278778,261.363220 514.386047,241.892029 542.251587,237.315308 
	C582.907959,230.637772 617.763000,265.957428 610.654541,306.641327 
	C610.542175,307.284546 610.263367,307.898682 609.909363,309.003510 
	C595.184448,309.003510 580.400146,309.003510 565.615784,309.003510 
	C550.794250,309.003510 535.972717,309.003510 520.428528,309.003510 
	C521.928162,318.462402 525.992676,325.838226 533.370605,331.374390 
	C545.766968,340.676117 567.043945,339.038544 576.084534,326.084015 
	C576.720947,325.172150 578.168213,324.321625 579.251343,324.305359 
	C588.556519,324.165924 597.864746,324.225342 607.266357,324.225342 
	C599.504578,354.153900 561.292725,372.251068 524.677979,356.372742 
M543.500000,288.888000 
	C556.088440,288.888000 568.676941,288.888000 581.312988,288.888000 
	C579.730225,272.187103 567.123840,261.213287 550.771790,261.750610 
	C535.146606,262.264038 521.509521,274.562012 521.079224,288.888000 
	C528.223145,288.888000 535.361633,288.888000 543.500000,288.888000 
z"/>
<path fill="#F0F3FF" opacity="1.000000" stroke="none" 
	d="
M413.376007,340.369049 
	C397.062042,360.290161 370.722198,367.406830 345.269806,358.987091 
	C322.153503,351.340179 306.333588,330.228821 304.913330,305.292511 
	C303.599609,282.227570 310.171722,262.449554 329.251862,248.234802 
	C348.636810,233.792953 377.194061,232.795715 397.563873,245.389526 
	C418.048950,258.054565 428.862122,282.633850 424.661438,307.017059 
	C424.579193,307.494568 424.324249,307.942322 423.960510,308.905243 
	C394.386932,308.905243 364.671265,308.905243 334.939056,308.905243 
	C335.522552,323.071106 347.822723,335.691406 361.962921,337.010162 
	C373.252899,338.063080 383.091309,335.345734 390.280457,325.846619 
	C390.878723,325.056122 392.122650,324.312317 393.075714,324.300781 
	C402.502075,324.186584 411.930328,324.231659 422.982147,324.231659 
	C419.426605,330.242859 416.513947,335.167206 413.376007,340.369049 
M390.714691,274.888947 
	C382.125824,262.735809 368.637604,258.490021 354.693237,263.550201 
	C343.954529,267.447113 334.561127,279.687042 335.419128,288.492188 
	C355.433716,288.492188 375.431122,288.492188 396.397797,288.492188 
	C394.437653,283.721527 392.755127,279.626465 390.714691,274.888947 
z"/>
<path fill="#F0F3FF" opacity="1.000000" stroke="none" 
	d="
M1157.852783,300.883575 
	C1168.786621,288.440582 1183.138428,285.638184 1198.291748,285.211243 
	C1207.579102,284.949615 1216.879761,285.162872 1226.089722,285.162872 
	C1227.927490,274.385803 1222.267578,264.620209 1212.733154,261.527069 
	C1200.608643,257.593689 1190.140747,262.661041 1183.594849,275.700806 
	C1174.188721,275.700806 1164.738281,275.700806 1154.096802,275.700806 
	C1155.660889,270.898346 1156.587036,266.368378 1158.545166,262.340088 
	C1166.162720,246.670029 1179.668091,239.309235 1196.282715,237.234070 
	C1207.983398,235.772644 1219.603516,236.631088 1230.428955,241.977982 
	C1245.811401,249.575668 1255.470703,261.797241 1255.953979,279.070953 
	C1256.703003,305.840881 1256.151611,332.647125 1256.151611,359.705261 
	C1247.862427,359.705261 1239.794067,359.705261 1231.515991,359.705261 
	C1230.666260,355.877655 1229.846313,352.183472 1228.946777,348.131134 
	C1228.179077,348.512115 1227.537354,348.646332 1227.172485,349.038269 
	C1212.534546,364.761719 1186.177734,365.008911 1170.517822,357.442932 
	C1148.849731,346.974121 1142.996704,321.456024 1157.852783,300.883575 
M1180.552124,317.323242 
	C1177.327881,329.125824 1182.572876,336.873718 1194.715820,338.245758 
	C1215.000244,340.537720 1229.724121,326.529266 1226.068359,307.886780 
	C1217.882935,307.886780 1209.602051,307.862793 1201.321533,307.903076 
	C1199.164429,307.913574 1196.967773,307.901184 1194.859985,308.286255 
	C1189.197998,309.320648 1183.815308,310.965393 1180.552124,317.323242 
z"/>
<path fill="#F0F3FF" opacity="1.000000" stroke="none" 
	d="
M818.843994,320.756836 
	C809.496094,346.292297 789.621948,361.182129 764.046509,362.116364 
	C736.727051,363.114258 714.842407,350.384949 704.517639,327.491119 
	C693.691345,303.485168 698.270386,273.063171 715.410461,255.122009 
	C732.273987,237.470322 759.718323,231.504181 783.730408,240.934937 
	C808.216431,250.551849 820.155151,269.668091 821.696167,295.225739 
	C822.196411,303.522705 819.943604,311.985657 818.843994,320.756836 
M762.272400,264.034943 
	C745.496643,263.957489 733.519348,272.935669 729.867249,289.266144 
	C728.625488,294.818726 728.424316,300.898132 729.183899,306.543579 
	C730.819458,318.699799 737.114624,328.095795 748.857239,332.728455 
	C759.718872,337.013519 770.358398,335.753815 779.437256,328.318878 
	C792.258728,317.818970 794.507935,303.597626 790.776184,288.457947 
	C787.300049,274.355103 777.873230,265.963318 762.272400,264.034943 
z"/>
<path fill="#F0F3FF" opacity="1.000000" stroke="none" 
	d="
M871.560547,278.882751 
	C870.681091,283.647064 869.446594,288.057159 869.400818,292.479614 
	C869.188660,312.974792 869.306396,333.473389 869.306030,353.970764 
	C869.305969,355.785919 869.306091,357.601074 869.306091,359.689972 
	C859.372742,359.689972 849.820984,359.689972 840.017212,359.689972 
	C840.017212,319.533203 840.017212,279.601105 840.017212,239.332794 
	C848.784302,239.332794 857.544434,239.332794 866.854492,239.332794 
	C867.669434,242.835648 868.548401,246.613632 869.562927,250.974030 
	C870.659119,250.179947 871.455872,249.727844 872.101868,249.116531 
	C886.032959,235.932938 902.526611,233.762222 919.938965,239.420670 
	C937.164673,245.018478 946.470154,258.165497 949.956482,275.593811 
	C950.638062,279.001007 950.976929,282.532288 950.991638,286.008331 
	C951.091187,309.504822 951.062866,333.001862 951.065857,356.498718 
	C951.065979,357.468445 950.965332,358.438171 950.896362,359.683472 
	C941.116943,359.683472 931.548096,359.683472 921.378235,359.683472 
	C921.378235,357.589600 921.378723,355.634552 921.378113,353.679504 
	C921.371765,332.515594 921.576111,311.348907 921.295959,290.188599 
	C921.045593,271.277100 905.775146,260.076324 887.501953,265.062195 
	C880.191772,267.056793 874.825806,271.498993 871.560547,278.882751 
z"/>
<path fill="#F0F3FF" opacity="1.000000" stroke="none" 
	d="
M268.175018,315.000122 
	C268.175018,330.127533 268.175018,344.754974 268.175018,359.676819 
	C257.868408,359.676819 247.944641,359.676819 237.493469,359.676819 
	C237.493469,314.636627 237.493469,269.580231 237.493469,223.968811 
	C220.753052,223.968811 204.521439,223.968811 187.994232,223.968811 
	C187.994232,213.815750 187.994232,204.214951 187.994232,194.303619 
	C231.100433,194.303619 274.159851,194.303619 317.612183,194.303619 
	C317.612183,203.830536 317.612183,213.524170 317.612183,223.724701 
	C301.295197,223.724701 285.047058,223.724701 268.175018,223.724701 
	C268.175018,254.315018 268.175018,284.407562 268.175018,315.000122 
z"/>
<path fill="#F0F3FF" opacity="1.000000" stroke="none" 
	d="
M1115.257568,314.924988 
	C1123.373413,314.924988 1131.018799,314.924988 1138.916138,314.924988 
	C1138.974121,315.816467 1139.135864,316.438812 1139.034546,317.014954 
	C1134.647583,341.970642 1112.886108,360.970856 1087.453003,362.076965 
	C1053.863525,363.537781 1029.310913,345.296326 1022.494202,313.815521 
	C1014.976318,279.096680 1033.965576,246.771484 1066.713989,238.540833 
	C1099.579346,230.280792 1129.304199,246.821198 1138.430908,278.464172 
	C1138.792236,279.717072 1138.980347,281.019897 1139.388184,282.960480 
	C1129.929688,282.960480 1120.847534,283.027832 1111.769531,282.860748 
	C1110.817993,282.843201 1109.489258,281.636017 1109.015015,280.652954 
	C1102.978638,268.142303 1092.812134,262.978851 1079.330933,264.176239 
	C1066.474609,265.318176 1056.122437,274.360168 1052.465454,287.613464 
	C1049.378662,298.799835 1050.098999,309.816132 1056.199707,319.915833 
	C1062.614380,330.535248 1072.403198,335.469513 1084.729370,334.888214 
	C1096.327026,334.341278 1104.552002,328.490417 1108.762573,317.670502 
	C1110.107422,314.214569 1112.452637,315.085114 1115.257568,314.924988 
z"/>
<path fill="#F0F3FF" opacity="1.000000" stroke="none" 
	d="
M638.693420,337.999146 
	C638.693420,314.398956 638.693420,291.298737 638.693420,267.709534 
	C631.883850,267.709534 625.619324,267.709534 618.925781,267.709534 
	C618.925781,258.021973 618.925781,248.815582 618.925781,239.096863 
	C625.350098,239.096863 631.760010,239.096863 638.693665,239.096863 
	C638.693665,233.818390 638.680054,229.038788 638.696045,224.259308 
	C638.770874,201.827972 648.899719,191.757812 671.458191,191.696762 
	C678.908691,191.676605 686.359375,191.693588 694.306396,191.693588 
	C694.306396,199.117615 694.319641,206.067200 694.295837,213.016647 
	C694.290771,214.487045 694.150085,215.957001 694.049255,217.852036 
	C688.322632,217.852036 682.858643,217.764511 677.398743,217.875534 
	C671.419373,217.997101 668.553101,220.776199 668.283142,226.751740 
	C668.111206,230.558838 668.251038,234.380035 668.251038,238.746841 
	C676.864502,238.746841 685.260803,238.746841 693.977112,238.746841 
	C693.977112,248.514450 693.977112,257.731232 693.977112,267.450928 
	C685.556763,267.450928 677.301880,267.450928 668.234192,267.450928 
	C668.234192,283.172150 668.234253,298.407440 668.234253,313.642761 
	C668.234253,328.917236 668.234192,344.191711 668.234192,359.717468 
	C658.305176,359.717468 648.870361,359.717468 638.693420,359.717468 
	C638.693420,352.664337 638.693420,345.581726 638.693420,337.999146 
z"/>
<path fill="#EFF2FF" opacity="1.000000" stroke="none" 
	d="
M472.857605,195.339081 
	C472.915985,250.258377 472.915985,304.704712 472.915985,359.563324 
	C463.065704,359.563324 453.382874,359.563324 443.425812,359.563324 
	C443.425812,304.571625 443.425812,249.684143 443.425812,194.866119 
	C453.211884,194.866119 463.005554,194.866119 472.857605,195.339081 
z"/>
<path fill="#F0F3FF" opacity="1.000000" stroke="none" 
	d="
M414.904602,508.222046 
	C394.962585,507.986877 379.674805,495.505798 376.912476,477.599335 
	C374.033081,458.934082 384.343384,441.515533 401.893463,436.055145 
	C416.585327,431.484009 429.737274,434.744049 440.300049,445.875427 
	C450.899109,457.045074 453.407837,470.536469 447.829224,484.765869 
	C442.165710,499.211914 430.998535,507.045685 414.904602,508.222046 
z"/>
<path fill="#F0F3FF" opacity="1.000000" stroke="none" 
	d="
M260.257263,440.705566 
	C273.249939,450.395691 278.478790,463.166351 275.489105,478.544434 
	C272.613251,493.336761 263.271332,503.039276 248.643768,507.055145 
	C232.476639,511.493652 215.424347,504.262451 207.090149,489.820190 
	C198.796036,475.447418 200.987228,457.540527 212.507385,445.549042 
	C224.113785,433.467804 242.153519,430.688690 256.965393,438.711090 
	C257.987030,439.264435 258.964844,439.898712 260.257263,440.705566 
z"/>
<path fill="#F0F3FF" opacity="1.000000" stroke="none" 
	d="
M296.341064,449.396729 
	C306.308289,437.039276 318.829376,431.878693 334.094208,435.089264 
	C348.089172,438.032745 357.411652,446.832733 361.763245,460.394867 
	C366.925049,476.482086 360.082855,494.081970 345.725983,502.884949 
	C331.228760,511.774017 312.304749,509.586914 300.214600,497.625061 
	C288.197693,485.735657 285.748596,467.334503 294.237488,452.620605 
	C294.818359,451.613831 295.492889,450.661102 296.341064,449.396729 
z"/>
<path fill="#F2F4FF" opacity="1.000000" stroke="none" 
	d="
M973.770752,286.999878 
	C973.770752,270.874969 973.770752,255.250107 973.770752,239.313690 
	C983.642883,239.313690 993.195923,239.313690 1003.025635,239.313690 
	C1003.025635,279.461945 1003.025635,319.469269 1003.025635,359.723022 
	C993.349915,359.723022 983.929810,359.723022 973.770752,359.723022 
	C973.770752,335.607147 973.770752,311.553497 973.770752,286.999878 
z"/>
<path fill="#ECF1FF" opacity="1.000000" stroke="none" 
	d="
M778.152100,188.017822 
	C785.943542,188.017822 793.257935,188.017822 800.519409,188.017822 
	C800.661133,188.554642 800.911804,188.995819 800.795898,189.137772 
	C792.162659,199.713623 783.529480,210.290070 774.788513,220.776581 
	C774.045227,221.668350 772.577026,222.412735 771.429443,222.436188 
	C764.144470,222.585068 756.854919,222.511841 748.496948,222.511841 
	C752.697388,216.058136 756.358704,210.423233 760.030334,204.795074 
	C762.486694,201.029709 765.283264,197.442032 767.335510,193.469025 
	C769.628784,189.029510 772.777466,187.088867 778.152100,188.017822 
z"/>
<path fill="#EFF2FF" opacity="1.000000" stroke="none" 
	d="
M1001.765991,215.723648 
	C994.977051,221.982956 988.033752,223.340500 981.003357,220.007706 
	C974.524353,216.936295 970.451599,210.233185 971.059998,203.027664 
	C971.690430,195.562057 975.606506,190.331055 982.669617,187.686630 
	C989.704102,185.052948 997.772827,187.443069 1002.367920,193.357590 
	C1007.434021,199.878387 1007.306641,207.716690 1001.765991,215.723648 
z"/>
<path fill="#0468FF" opacity="1.000000" stroke="none" 
	d="
M543.000061,288.888000 
	C535.361633,288.888000 528.223145,288.888000 521.079224,288.888000 
	C521.509521,274.562012 535.146606,262.264038 550.771790,261.750610 
	C567.123840,261.213287 579.730225,272.187103 581.312988,288.888000 
	C568.676941,288.888000 556.088440,288.888000 543.000061,288.888000 
z"/>
<path fill="#0468FF" opacity="1.000000" stroke="none" 
	d="
M390.893616,275.210205 
	C392.755127,279.626465 394.437653,283.721527 396.397797,288.492188 
	C375.431122,288.492188 355.433716,288.492188 335.419128,288.492188 
	C334.561127,279.687042 343.954529,267.447113 354.693237,263.550201 
	C368.637604,258.490021 382.125824,262.735809 390.893616,275.210205 
z"/>
<path fill="#0368FF" opacity="1.000000" stroke="none" 
	d="
M1180.719604,316.979675 
	C1183.815308,310.965393 1189.197998,309.320648 1194.859985,308.286255 
	C1196.967773,307.901184 1199.164429,307.913574 1201.321533,307.903076 
	C1209.602051,307.862793 1217.882935,307.886780 1226.068359,307.886780 
	C1229.724121,326.529266 1215.000244,340.537720 1194.715820,338.245758 
	C1182.572876,336.873718 1177.327881,329.125824 1180.719604,316.979675 
z"/>
<path fill="#0267FF" opacity="1.000000" stroke="none" 
	d="
M762.715027,264.054932 
	C777.873230,265.963318 787.300049,274.355103 790.776184,288.457947 
	C794.507935,303.597626 792.258728,317.818970 779.437256,328.318878 
	C770.358398,335.753815 759.718872,337.013519 748.857239,332.728455 
	C737.114624,328.095795 730.819458,318.699799 729.183899,306.543579 
	C728.424316,300.898132 728.625488,294.818726 729.867249,289.266144 
	C733.519348,272.935669 745.496643,263.957489 762.715027,264.054932 
z"/>
</svg>